<?xml version="1.0" encoding="utf-8"?>
<svg version="1.1" id="Layer_1" x="0px" y="0px" viewBox="-42.498 7.5 1659.969 533.064" style="enable-background:new 0 0 512 512;" xmlns="http://www.w3.org/2000/svg" xmlns:xlink="http://www.w3.org/1999/xlink" xmlns:bx="https://boxy-svg.com">
  <defs>
    <style bx:fonts="Dosis">@import url(https://fonts.googleapis.com/css2?family=Dosis%3Aital%2Cwght%400%2C200%3B0%2C300%3B0%2C400%3B0%2C500%3B0%2C600%3B0%2C700%3B0%2C800&amp;display=swap);</style>
    <linearGradient id="gradient-0">
      <title>LabEddit</title>
      <stop offset="0" style="stop-color: rgb(118, 82, 229);"/>
      <stop offset="0.5" style="stop-color: rgb(196, 113, 237);"/>
      <stop offset="1" style="stop-color: rgb(222, 64, 142);"/>
    </linearGradient>
    <linearGradient id="gradient-0-0" gradientUnits="userSpaceOnUse" x1="1244.242" y1="63.458" x2="1244.242" y2="547.407" spreadMethod="pad" gradientTransform="matrix(0, -4.532273, 4.748396, 0, -471.804019, 6186.652191)" xlink:href="#gradient-0"/>
    <linearGradient id="gradient-0-1" gradientUnits="userSpaceOnUse" x1="165.576" y1="236.552" x2="165.576" y2="300.208" spreadMethod="pad" xlink:href="#gradient-0"/>
    <linearGradient id="gradient-0-2" gradientUnits="userSpaceOnUse" x1="346.42" y1="236.551" x2="346.42" y2="300.207" spreadMethod="pad" xlink:href="#gradient-0"/>
    <linearGradient id="gradient-0-3" gradientUnits="userSpaceOnUse" x1="256" y1="15.88" x2="256" y2="496.121" spreadMethod="pad" xlink:href="#gradient-0"/>
    <linearGradient id="gradient-0-4" gradientUnits="userSpaceOnUse" x1="255.999" y1="324.821" x2="255.999" y2="396.012" spreadMethod="pad" xlink:href="#gradient-0"/>
  </defs>
  <g/>
  <g/>
  <g/>
  <g/>
  <g/>
  <g/>
  <g/>
  <g/>
  <g/>
  <g/>
  <g/>
  <g/>
  <g/>
  <g/>
  <g/>
  <g>
    <text style="fill: url(#gradient-0-0); font-family: Dosis; font-size: 385px; font-weight: 500; paint-order: fill; text-transform: uppercase; white-space: pre;" transform="matrix(0.631518, 0, 0, 0.661632, 269.837585, 92.316071)" x="411.34" y="457.442">Lab-Eddit</text>
    <g transform="matrix(1, 0, 0, 1, -19.379429, 12.689469)">
      <g>
        <g>
          <path d="M165.578,236.552c-17.55,0-31.83,14.279-31.83,31.828s14.279,31.828,31.83,31.828c17.549,0,31.827-14.278,31.827-31.828 C197.404,250.829,183.128,236.552,165.578,236.552z M165.578,283.915c-8.568,0-15.538-6.97-15.538-15.535 c0-8.567,6.97-15.535,15.538-15.535c8.565,0,15.534,6.97,15.534,15.535C181.112,276.946,174.143,283.915,165.578,283.915z" style="fill-rule: nonzero; fill: url(#gradient-0-1); paint-order: fill;"/>
          <path d="M346.421,300.207c17.549,0,31.828-14.278,31.828-31.828c0-17.55-14.279-31.828-31.828-31.828 c-17.55,0-31.829,14.279-31.829,31.828C314.592,285.929,328.871,300.207,346.421,300.207z M346.421,252.844 c8.567,0,15.535,6.97,15.535,15.535c0,8.565-6.969,15.535-15.535,15.535c-8.567,0-15.536-6.97-15.536-15.535 C330.886,259.814,337.856,252.844,346.421,252.844z" style="fill-rule: nonzero; fill: url(#gradient-0-2); paint-order: fill;"/>
          <path d="M458.982,237.237v-40.98c0-15.176-12.345-27.522-27.521-27.522h-76.894v-6.924c0-15.176-12.346-27.522-27.523-27.522 h-62.898v-25.335c21.988-3.87,38.753-23.095,38.753-46.176c0-25.86-21.039-46.898-46.899-46.898S209.1,36.919,209.1,62.778 c0,23.081,16.765,42.306,38.753,46.176v25.335h-62.9c-15.176,0-27.522,12.346-27.522,27.522v6.924h-18.773 c-4.5,0-8.146,3.647-8.146,8.146c0,4.499,3.646,8.146,8.146,8.146h292.803c6.191,0,11.229,5.038,11.229,11.23v48.448v123.776 v50.601c0,6.192-5.038,11.23-11.229,11.23H80.537c-6.192,0-11.231-5.038-11.231-11.23v-50.539c0-0.022,0.003-0.041,0.003-0.063 V244.707c0-0.022-0.003-0.041-0.003-0.063v-48.386c0-6.192,5.039-11.23,11.231-11.23h30.968c4.5,0,8.146-3.647,8.146-8.146 c0-4.499-3.646-8.146-8.146-8.146H80.537c-15.177,0-27.523,12.346-27.523,27.522v40.98C23.133,241.946,0,271.305,0,306.594 c0,35.289,23.133,64.648,53.014,69.356v43.133c0,15.176,12.346,27.522,27.523,27.522h94.905c-1.54,3.432-2.405,7.231-2.405,11.23 v10.764c0,15.176,12.346,27.522,27.523,27.522h71.695c4.5,0,8.146-3.647,8.146-8.146s-3.646-8.146-8.146-8.146h-71.695 c-6.192,0-11.231-5.038-11.231-11.23v-10.764c0-6.192,5.039-11.23,11.231-11.23h110.873c6.192,0,11.231,5.038,11.231,11.23 v10.764c0,6.192-5.039,11.23-11.231,11.23h-12.024c-4.5,0-8.146,3.647-8.146,8.146s3.646,8.146,8.146,8.146h12.024 c15.177,0,27.523-12.346,27.523-27.522v-10.764c0-3.999-0.865-7.799-2.405-11.23h94.909c15.176,0,27.521-12.346,27.521-27.522 V375.95C488.865,371.244,512,341.885,512,306.594C512,271.303,488.866,241.943,458.982,237.237z M225.394,62.778 c0-16.877,13.73-30.606,30.607-30.606s30.607,13.73,30.607,30.606s-13.73,30.606-30.607,30.606 C239.123,93.384,225.394,79.655,225.394,62.778z M338.275,168.735H173.724v-6.924c0-6.192,5.038-11.23,11.23-11.23h71.025 c0.008,0,0.014,0.001,0.021,0.001c0.007,0,0.014-0.001,0.021-0.001h71.024c6.192,0,11.231,5.038,11.231,11.23V168.735z M53.014,359.397c-20.869-4.718-36.722-26.642-36.722-52.803c0-26.159,15.853-48.084,36.722-52.803V359.397z M458.982,359.398 V253.791c20.871,4.717,36.725,26.642,36.725,52.803C495.708,332.754,479.853,354.68,458.982,359.398z" style="fill-rule: nonzero; fill: url(#gradient-0-3); paint-order: fill;"/>
          <path d="M290.445,324.821h-68.893c-15.177,0-27.523,12.346-27.523,27.522v16.147c0,15.176,12.346,27.522,27.523,27.522h68.893 c15.177,0,27.523-12.346,27.523-27.522v-16.147C317.968,337.167,305.622,324.821,290.445,324.821z M301.676,368.49 c0,6.192-5.039,11.23-11.231,11.23h-68.893c-6.192,0-11.231-5.038-11.231-11.23v-16.147c0-6.192,5.039-11.23,11.231-11.23h68.893 c6.192,0,11.231,5.038,11.231,11.23V368.49z" style="fill-rule: nonzero; fill: url(#gradient-0-4); paint-order: fill;"/>
        </g>
      </g>
    </g>
  </g>
  <g transform="matrix(1, 0, 0, 1, 1143.975788, -318.441898)"/>
  <g transform="matrix(1, 0, 0, 1, 1143.975788, -318.441898)"/>
  <g transform="matrix(1, 0, 0, 1, 1143.975788, -318.441898)"/>
  <g transform="matrix(1, 0, 0, 1, 1143.975788, -318.441898)"/>
  <g transform="matrix(1, 0, 0, 1, 1143.975788, -318.441898)"/>
  <g transform="matrix(1, 0, 0, 1, 1143.975788, -318.441898)"/>
  <g transform="matrix(1, 0, 0, 1, 1143.975788, -318.441898)"/>
  <g transform="matrix(1, 0, 0, 1, 1143.975788, -318.441898)"/>
  <g transform="matrix(1, 0, 0, 1, 1143.975788, -318.441898)"/>
  <g transform="matrix(1, 0, 0, 1, 1143.975788, -318.441898)"/>
  <g transform="matrix(1, 0, 0, 1, 1143.975788, -318.441898)"/>
  <g transform="matrix(1, 0, 0, 1, 1143.975788, -318.441898)"/>
  <g transform="matrix(1, 0, 0, 1, 1143.975788, -318.441898)"/>
  <g transform="matrix(1, 0, 0, 1, 1143.975788, -318.441898)"/>
  <g transform="matrix(1, 0, 0, 1, 1143.975788, -318.441898)"/>
</svg>